/* XPM */
static const char *output2[] = {
/* columns rows colors chars-per-pixel */
"40 40 120 2 ",
"   c #344E0C",
".  c #335609",
"X  c #3A550E",
"o  c #37590C",
"O  c #3D5A0D",
"+  c #3A4614",
"@  c #354B11",
"#  c #3B4E15",
"$  c #3D5512",
"%  c #3E5B12",
"&  c #40560C",
"*  c #425C0E",
"=  c #4B5F0F",
"-  c #435514",
";  c #445C13",
":  c #4A5D14",
">  c #445519",
",  c #49551C",
"<  c #455C19",
"1  c #4C5D1A",
"2  c #535F17",
"3  c #525E1C",
"4  c #426106",
"5  c #45620E",
"6  c #4A650E",
"7  c #4D6A0E",
"8  c #506D0F",
"9  c #456212",
"0  c #4B6413",
"q  c #466811",
"w  c #4D6914",
"e  c #47611A",
"r  c #4D621A",
"t  c #4E6719",
"y  c #4F631C",
"u  c #4D641C",
"i  c #4E681B",
"p  c #4F691C",
"a  c #526515",
"s  c #526716",
"d  c #536913",
"f  c #516E12",
"g  c #506814",
"h  c #516B16",
"j  c #536B16",
"k  c #536C15",
"l  c #50611A",
"z  c #53641B",
"x  c #51661B",
"c  c #546618",
"v  c #50631F",
"b  c #52631E",
"n  c #55651E",
"m  c #59661D",
"M  c #53681A",
"N  c #556919",
"B  c #57681A",
"V  c #506C18",
"C  c #536D18",
"Z  c #566E18",
"A  c #546A1D",
"S  c #556C1C",
"D  c #596D1A",
"F  c #586C1B",
"G  c #586A1D",
"H  c #5B6C1D",
"J  c #5A6D1D",
"K  c #547114",
"L  c #5B7016",
"P  c #56711B",
"I  c #5B711D",
"U  c #5C711F",
"Y  c #646E1F",
"T  c #62701A",
"R  c #4C5B20",
"E  c #535F23",
"W  c #5A5F2A",
"Q  c #536221",
"!  c #556522",
"~  c #566224",
"^  c #596722",
"/  c #5A6623",
"(  c #566A21",
")  c #596A22",
"_  c #5B6B23",
"`  c #5C6B27",
"'  c #5B6E24",
"]  c #5A6629",
"[  c #5D6B29",
"{  c #5A7120",
"}  c #5D7123",
"|  c #5E7026",
" . c #5E7821",
".. c #5E7228",
"X. c #626C25",
"o. c #606E25",
"O. c #606F26",
"+. c #626D2B",
"@. c #617225",
"#. c #637225",
"$. c #657C23",
"%. c #687C26",
"&. c #65732B",
"*. c #63702E",
"=. c #64742C",
"-. c #6A752C",
";. c #67792B",
":. c #6C7C2D",
">. c #656F31",
",. c #677030",
"<. c #6B7431",
"1. c #6E7A32",
"2. c #707634",
"3. c #727B34",
"4. c #D2D2D2",
"5. c #D5D5D5",
"6. c gray85",
"7. c #DFDFDF",
"8. c gray89",
"9. c #E6E6E6",
/* pixels */
"* ; X 0 M % ; O w ; i t p S : = 0 9 K M A q 9.9.9.9.; ; y 1 1 - M 0 M r z q : ; ",
"0 0 ; 9 * ; r ; O 5 0 q w w S 6 5 0 w q h 9.9.9.9.9.9.9.- r ; 1 ; X ; 0 9 0 U ; ",
"; 0 X 9 w : t 9 O X O w i q 0 h ; ; Z z 9.9.8.5.5.7.9.9.9.l ; r ; 9 0 t 5 ; Z 0 ",
"O O O X 9 q * 5 0 0 s z Z z ; E y r J z 9.9.5.5.6.6.9.9.9.u - 0 r 9 ; 0 ; q h q ",
"* q 0 ; O o O O q z N r G N D J w z : 9.9.9.7.8.9.9.9.9.9.9.9.9.9.@ r e 1 9 $ ; ",
"0 q i %     O ; V D 0 N ; 0 w 7 0 Z q 9.9.9.9.9.9.9.9.9.9.9.9.9.9.9.9.; < > $ * ",
"; w w O $   % V q q M k w 0 0 0 0 q q q 9.9.9.9.9.9.9.9.9.9.9.9.9.9.9.M < l ; # ",
"3 : n < u O o q w 9 o 5 q q 5 5 5 o 9 9 9.9.9.9.9.9.9.9.9.9.9.9.9.9.9.9.r ; n X.",
"X.> : 0 S 9 $ 0 9 % o . 5 9 - 0 w o o w _ 9.9.9.9.9.9.9.9.9.9.9.9.9.9.9.v R ; 0 ",
"G 3 * * 5 V M ; % X $ o % w _ 0 w ; ; 9 P t 9.9.9.9.9.9.9.9.9.9.9.9.9.9.} -.v O ",
"9 9 0 X = w ; 0 * O o ; ; ; k N 0 t : 9 w D 9.9.9.9.9.9.9.9.9.9.9.9.9.y w D U ; ",
"( z 0 q : z * 5 * 0 ; w 0 0 w D z 0 w w w 9.9.9.9.9.9.9.9.9.9.9.9.9.9.I k V J J ",
"=.| ; % { _ 9 ; O 0 q 0 w f w h h Z V Z } 9.9.9.9.9.9.9.9.9.9.9.9.9.V M Z J q J ",
"( &.J e J } 9 % % M h D I Z #.G J Z I q 9.9.9.9.9.9.9._ &.&.9.9.+.X...{ M w A : ",
"M &.r z _ #.r ; * } #.w V ; K $.S 9 q 9.9.9.9.9.9.9.9.~ ! <.&.&.3./ / X.' s m } ",
"J J : G X.z J _ r I S * 0 % r M q ; ; 9.9.9.9.9.9.9.;.1.J X.X.z <.:.l z z z / / ",
"z : s h 0 z r 0 I 0 ; ; : z h 0 0 Z 9.9.9.9.9.9.9.9.G z ; ; 1 W ` X.` / +./ +.X.",
"Y z : _ 0 N h 0 w 0 Z I } n : & 0 U 9.9.9.9.9.9.9.: ; $ < z z &.#.n / 2.:.[ z J ",
"D z 0 h q 0 8 6 0 * 0 D z 1 1 0 0 9.9.9.9.9.9.9.9.! ! $ 1 s : 0 r - n m X.J 0 J ",
"z 0 0 7 6 0 5 4 6 q 0 N c 0 1 r z 9.9.9.9.9.9.9.n ` +.[ - 1 _ ; : _ N 2 X.m m _ ",
"l #._ s s r ; : s s z c 1 G : z 9.9.9.9.9.9.9.3 v ! ] *.l z #.N 0 D / X._ _ X./ ",
"} _ ! r 0 0 : z z h : n r h 7 9.9.9.9.9.9.9.9.A _ ' : r 3 1 z N c m +.&.&./ / 3 ",
"M ( n : : 0 6 0 0 Z l r 0 : 5 9.9.9.9.9.9.9.0 0 h z 1 ; ' 1 3 %.N 1 / ,.:.X.1 _ ",
"l v , z N 6 8 6 r 0 = ; 0 h 9.9.9.9.9.9.9.9.r 1 v / _ ; & 1 : 6 : - n z _ D s _ ",
"l G J s 0 0 5 * 0 0 h s c 0 9.9.9.9.9.9.9.N r : z _ >.>.: z &.0 0 _ N m &.m X./ ",
"z #.z z h r : 1 z h s z : 9.9.9.9.9.9.9.9.8 0 3 ! ! y _ 1 l } M 0 N X.X./ _ X.! ",
"I / _ : : 0 = M 9.9.: G r 9.9.9.9.9.9.9.5 0 0 M A | s s ! : 3 J ;.X.X.-.<.] E 3 ",
"z n < 1 s 0 9.9.9.9.9.9.9.9.9.9.9.9.9.s 5 7 5 ; J N z r _ ! +.#.X.X./ -.X.+./ ` ",
"X.] 3 _ J 9.9.9.9.9.9.9.9.9.9.9.9.9.9.6 * 0 5 0 -.1 1 N ` -.-./ 1 m / v W 2.%.J ",
"T #.Y L f 9.9.8.9.9.9.9.9.9.9.9.9.9.h : ; q d J n _ h h J _ n _ &.X.<.&.2.;._ _ ",
";.#.m 2 9.9.6.5.9.9.9.9.9.9.9.9.9.9.G v - 0 Z ` m J n 1 2 / n _ 0 X.X.-.<.X.#.-.",
";.#.-.} 9.9.6.5.9.9.9.9.9.9.9.9.9.9.9.! ] 0 6 z _ : 3 / J A J A ; l X.#.#.;.:.#.",
"P D $.h 9.9.7.4.7.9.9.9.9.9.9.9.9.9.9.9.w 0 - v G ! / X.&.( I A ! n X.#.#.I  ._ ",
"0 0 h 0 s 9.9.7.7.9.9.9.9.9.9.9.9.9.9.9.O q n ' ( m n z | > n r t _ #.` &.r ` } ",
"S r 0 r A 9.9.9.9.9.9.9.9.9.9.9.9.9.9.9.9.5 K I X.1 3 3 ] Q ! u r X.S t v n h h ",
"J h A w e l r 9.9.9.9.9.9.9.9.9.9.9.9.9.9.9 5 0 -.X.X.<.[ ( ..A p [ X.h V s 0 1 ",
"m X.v 1 ; : 0 q } 0 6 9.9.9.9.9.9.9.9.9.w X 9 z r ! _ -.v A t r < G -.#.K D V h ",
"s m 3 J M 1 ; 9 w h I 9.9.9.9.9.9.9.9.9.w 0 0 r ; y z A ! v w ; < #.+.J 0 1 0 r ",
"5 Z r ; ; ; 0 q : r J r 9.9.9.9.9.9.9.# + ; : 0 0 ! [ / { r X ; ] ' 3._ r v z 0 ",
"e 0 0 M ; 9 ; ; #.t 9 9 0 # 9.9.9.9.0 t % O 0 > ! ..| r % z S $ ] r _ #.r : d w "
};
