/* XPM */
static const char *output3[] = {
/* columns rows colors chars-per-pixel */
"40 40 209 2 ",
"   c #441A05",
".  c #4A1E09",
"X  c #411702",
"o  c #4E220D",
"O  c #64321B",
"+  c #55322E",
"@  c #5C362C",
"#  c #5D382C",
"$  c #5A3738",
"%  c #64362B",
"&  c #683928",
"*  c #713C27",
"=  c #613D3D",
"-  c #663D34",
";  c #713E34",
":  c #344E0C",
">  c #3A550E",
",  c #37590C",
"<  c #3D5A0D",
"1  c #335609",
"2  c #394A14",
"3  c #3D5512",
"4  c #3E5B12",
"5  c #3F600F",
"6  c #425C0E",
"7  c #4B5F0F",
"8  c #435514",
"9  c #445C13",
"0  c #4A5D14",
"q  c #445519",
"w  c #49551C",
"e  c #455C19",
"r  c #4C5D1A",
"t  c #525E1C",
"y  c #535F17",
"u  c #45620E",
"i  c #4A650E",
"p  c #4D6A0E",
"a  c #456212",
"s  c #4B6413",
"d  c #466811",
"f  c #4D6914",
"g  c #47611A",
"h  c #4D631A",
"j  c #4E681B",
"k  c #526716",
"l  c #526B15",
"z  c #52641C",
"x  c #59661D",
"c  c #546A1A",
"v  c #5A6C1C",
"b  c #4F7110",
"n  c #56711B",
"m  c #5B711E",
"M  c #567114",
"N  c #646E1F",
"B  c #62701A",
"V  c #4C5B20",
"C  c #555F25",
"Z  c #76472B",
"A  c #6E4439",
"S  c #79463A",
"D  c #74463D",
"F  c #556422",
"G  c #596722",
"H  c #566A21",
"J  c #5B6B24",
"K  c #5A6629",
"L  c #5D6B29",
"P  c #5D7123",
"I  c #5E7228",
"U  c #5E7821",
"Y  c #616D25",
"T  c #626D2B",
"R  c #61672E",
"E  c #627225",
"W  c #65732B",
"Q  c #6A752C",
"!  c #67792B",
"~  c #6A7C2A",
"^  c #6B7431",
"/  c #677030",
"(  c #707634",
")  c #727B34",
"_  c #633E41",
"`  c #734741",
"'  c #7C4C41",
"]  c #7F5141",
"[  c #6E4642",
"{  c #B86E0F",
"}  c #BC7E1B",
"|  c #974A25",
" . c #9F4F29",
".. c #944C2A",
"X. c #824738",
"o. c #844A39",
"O. c #885433",
"+. c #985B39",
"@. c #8C4D2C",
"#. c #AB592C",
"$. c #B25D31",
"%. c #A85931",
"&. c #A96637",
"*. c #BE6939",
"=. c #B76736",
"-. c #BA7139",
";. c #B3722B",
":. c #C47E0D",
">. c #C26E3C",
",. c #C3733F",
"<. c #C57C38",
"1. c #C17428",
"2. c #834D40",
"3. c #8E5846",
"4. c #895443",
"5. c #945642",
"6. c #945A45",
"7. c #985E47",
"8. c #915C48",
"9. c #9B5F49",
"0. c #976243",
"q. c #9D6A46",
"w. c #9D624B",
"e. c #A86745",
"r. c #A2654C",
"t. c #A7694A",
"y. c #B06741",
"u. c #BB6F45",
"i. c #B16F4E",
"p. c #B6764C",
"a. c #A66D54",
"s. c #AC6D51",
"d. c #B26F54",
"f. c #AD7257",
"g. c #AB765C",
"h. c #B97556",
"j. c #B67757",
"k. c #A7764B",
"l. c #AB7E66",
"z. c #C97643",
"x. c #C47B47",
"c. c #CC7A44",
"v. c #C97947",
"b. c #D07F49",
"n. c #D07C46",
"m. c #C07E5C",
"M. c #C8841D",
"N. c #CE9334",
"B. c #C78A29",
"V. c #B08057",
"C. c #B78559",
"Z. c #BA8543",
"A. c #B48870",
"S. c #B3886F",
"D. c #CB8647",
"F. c #D4844A",
"G. c #D5884D",
"H. c #DB8A4E",
"J. c #CC9749",
"K. c #CB8758",
"L. c #D58A52",
"P. c #DB8B52",
"I. c #D48D5B",
"U. c #CB965B",
"Y. c #D69051",
"T. c #DF9256",
"R. c #DE9A5B",
"E. c #D89957",
"W. c #D29E4B",
"Q. c #E18E51",
"!. c #E29456",
"~. c #E19659",
"^. c #E89F5F",
"/. c #E39A5B",
"(. c #E29944",
"). c #DCAB5B",
"_. c #E9A15F",
"`. c #CE9765",
"'. c #DC9B62",
"]. c #C4997B",
"[. c #D29E75",
"{. c #C48D65",
"}. c #E19D67",
"|. c #DBA768",
" X c #CFA07E",
".X c #D9A97F",
"XX c #E9A564",
"oX c #ECA865",
"OX c #ECAD69",
"+X c #F1AB67",
"@X c #F0AE6B",
"#X c #E6B26A",
"$X c #F0B167",
"%X c #F5B46C",
"&X c #E0A370",
"*X c #EBB771",
"=X c #E7BB73",
"-X c #EBB975",
";X c #F0B570",
":X c #F5B872",
">X c #EBC27B",
",X c #F1C57D",
"<X c #F3CC85",
"1X c #F6D18B",
"2X c #FBD68D",
"3X c #FAD790",
"4X c #FEDC94",
"5X c #EFC983",
"6X c #FFE19B",
/* pixels */
"6 9 > s c 4 9 < f 9 j j j c 0 7 s a M c c d u 9 0 s 9 9 h r r 8 c s c h z d 0 9 ",
"s s 9 a 6 9 h 9 < u s d f f c i u s f d l s 9 > 0 g 9 e 8 h 9 r 9 > 9 s a s m 9 ",
"9 s > a f 0 j a < > < f j d s l 9 9 c z 9 F h 9 h e 9 9 r z 9 h 9 a s j u 9 c s ",
"< < < > a d 6 u s s k z c z 9 C h h v z c G d l z w g 9 Y h 8 s h a 9 s 9 d l d ",
"6 d s 9 < , < < d z c h v c v v f z 0 l l l i J L z c z P h q 8 e 2 h g r a 3 9 ",
"s d j 4 : : < 9 l v s c 9 s f p s c d s s 0 z z 9 e F Y c w W F 9 9 9 9 e q 3 6 ",
"9 f f < 3 : 4 l d d c l f s s s s d d d i u f k J z R E z e I W a 4 3 c e z 9 2 ",
"t 0 z e h < , d f a , u d d u u u , a a > i f f J Y ! J c z 9 9 9 8 r k h 9 z Y ",
"Y q 0 s c a 3 s a 4 , 1 u a 8 s f , , f J d l e w z n n s l 4 s a z I c z V 9 s ",
"v t 6 6 u l c 9 4 > 3 , 4 f J  Xl.9 9 a n j m J c c j I w e 8 h r r a s P Q z < ",
"a a s > 7 f 9 s 6 < , 9 8.w.a.g.a.f.h.a f v k c F h ! z K H r s W h e h f v m 9 ",
"H z s d 0 z 6 u 6 s 9 j.D - - - = A ` ' 4.3.4.X.o.2.D c L I 0 x v H v m l l v v ",
"W I 9 4 P J a 9 < s m.h.h.h.i.s.r.9.3.2.S ; - $ S ' = _ ( J J Q z z l c c v d v ",
"H W v g v P a 4 4 t.t.s.h.r.f.h.h.h.h.d.r.5.X.o.` D & + _ W J K T Y I P c f c 0 ",
"c W h z J E h 9 h.i.s.r.r.w.6.6.4.w.6.6.o.; ; ` S |  .@.+ $ W W ) G G Y J k x P ",
"v v 0 v Y z v r.s.w.s.s.h.h.h.d.s.w.w.; % ; ` S | #.*.*...@ $ z ^ ~ z z z z G G ",
"z 0 k l s f.j.s.r.r.0.3.7.5.6.r.w.d.5.; o.` S | #.,.>.>.$...% $ _ Y L G T G T Y ",
"N z 0 J s + # A ] 8.r.s.a.d.a.0.5.4.; o.[ X.#.,.F.H.G.n.z.>.%.% $ _ G ( ~ L z v ",
"v z s l d s O.@.* & @ @ - A ] 8.9.9.2.` X.#.,.L.|.-X-X}.z.>.$. .* $ z x Y v s v ",
"z s s p i s $XL.,.-.=.&.+.O.Z & @ @ = O.=.*.u. Xq.Z O.{.I.,.*.c.>.J c y Y x x J ",
"z E J k k h %XY.).OXXXR.Y.G.D.,.*.&.+.x.~.b.K.O.  X   O K.F.,.G.s v G Y J J Y G ",
"P J F h s s +Xb.I.OXOXOX@XOXXX^.R.L.z./.!.F.j.o       . d.P.z.G.k x T W W G G t ",
"c H z 0 0 s OXb.T.:X@XXX^.~.~.!././.G.~.P.F.t..       . y.b.>.b.c r G / ~ Y r J ",
"z z w z c i oXF.R.;X;X:X%X%X+X}.T.L.L.~.P.x.q.        . e.b.z.G.0 8 z z J v k J ",
"z v v k s s u G.|..XA.oXoXoXOX+X+X_.Q.!.T.b.6.          e.P.z.F.s J c x W x Y G ",
"z E z z l h (.P.`.].V.'.XXXX&X[.I.!.F.H.P.x.+.o .     X 7.c.z.H.Q.c Y Y G J Y F ",
"m G J 0 0 M.M.F.C.S.A.`.$XOX[.].l.G.z.x.c.u.7.% ; ; % & +.z.z.z.<.Y Y Q ^ K C t ",
"z z e r 1X).B.M.} &.Z.p.'.'.S.A.l.K.b.c.c.u.d.a.f.f.d.s.e.c.1.;.{ :.B.Q Y T G L ",
"Y K t 6X4X3X5X=X).W.N.B.J.D.k.V.V.p.z.>.z.y.i.h.i.p.s.e.7.&.;.-.<.N.#X-XC ( ~ v ",
"B E N M 6X6X6X6X4X2X<X>X#X).J.N.B.;.=.=.&.0.0.q.t.k.V.C.U.U.|.|.#X=X-X>X( ! J J ",
"! E x y l l B 6X6X6X6X6X3X3X1X,X=X|.E.Y.U.`.|.|.|.#X*X*X-X-X-X>X>X:XY Q ^ Y E Q ",
"! E Q P s s m c F z s v J F 8 4X2X2X1X<X,X-X*X*X*X-X-XG v c v c 9 z Y E E ! ~ E ",
"n v ~ l v k s s l j s n c F L s u d d j f s 8 z v F G Y W H m c F z Y E E m U J ",
"s s l s k p 9 h 9 9 s d d f d s w < f l < d z J H x z z I q z h j J E L W h L P ",
"c h s h c < 9 h > 9 s < l f 6 u v j f u d u M m Y r t t K F F h h Y c j z z l l ",
"v l c f g z h > r h > 0 d 5 d u b c s u 5 a u s Q Y Y ^ L H I c j L Y l l k s r ",
"x Y z r 9 0 s d P s i l h d 9 < u f a d f > a z h F J Q z c j h e v Q E M v l l ",
"k x t v c r 9 a f l m 9 6 d f < d h > < f s s h 9 h z c F z f 9 e E T v s r s h ",
"u c h 9 9 9 s d 0 h v h , > s s 0 s 9 2 2 9 0 s s F L G P h > 9 K J ) J h z z s ",
"g s s c 9 a 9 9 E j a a s 2 2 9 s a s j 4 < s q F I I h 4 z c 3 K h J E h 0 l f "
};
