/* XPM */
static char *dummy[]={
"40 40 17 1",
"g c #333300",
"l c #333333",
". c #336600",
"b c #336633",
"f c #663333",
"a c #666600",
"# c #666633",
"e c #993333",
"c c #996633",
"h c #996666",
"m c #999966",
"j c #cc6633",
"o c #cc9933",
"d c #cc9966",
"n c #cc9999",
"i c #cccc99",
"k c #cccccc",
"....#...a.####....a##.......#bb.#.###...",
"......#.....aa#...a.a....b...#.b......#.",
"....a.#....a#.cccccccc#.#...b#.#...#..#.",
"..........a##dccccce#ccf#bb.##..#.....a.",
".........####dcccccccccff#####...g#bb...",
"..#.....a#.#hdcccccccccffc###b##........",
".aa....a..#a#cc#fccccceffc###.##...#.#..",
"#.#.#...a...#fccddidjcccccc###....ba#.##",
"#...#......ffccdikkidcccccca.a...####b..",
"##...a#...lgfhmhmiiidmccccccc..#bb..###.",
".....a....lg#hcfcniidmccccccccb.##.#a##.",
"##...#.....a###cmiiddcccecccccc#####aa##",
"##..##......ammnniddccceccccccc###a###.#",
"###b##...#a##nnnnddjcccccccccffc#####a#.",
"#######..##aainnindjcccjjcccfffe#####a##",
"##.########..inniidddddddccceffcc#######",
"#.aa.##.#....knniiidddddoccceffcc#######",
"##.#.#a.a.###kiiiiiidddddoccffccff######",
"##.a..a....##nniiiidddddddccffccff####.#",
"#..a.......#annniiiiiiiddcccfeceff#a####",
"###aa#..aa#abnmmnniiddnddcceeccff#######",
"####...##a.##mmmdnddddddcccfeccff#######",
"###......###.mddmnnddddcccef#c##ff####b#",
"##b##.a.#....mdddmmmddjcccff##f#ff####a#",
"###a......aaamdddhmmmdocccfffff#########",
"####a#.b#aa#.ddnm##hhmdcccfffffff#######",
"###....#.a.#mdddm#fcmmdjccfgffff########",
"##.ba.a..dmhcmddcf#hmmdjccfgfff#########",
"######a.hcc#.ddmccmmmddcc#fgff##b#######",
"###aaa#aa..aaddc#mnnnddccfgg############",
"###aaa#a.aahmddchnnnmmoccf#ba###.#######",
"####..###mmmdd..a.###.ocf.######.#######",
"a##a#a..hmmddd#....#a.ocf###############",
"..a.aa.#.mmm.a..b.aa..jc#####.##########",
"##.##..#....aa..##a...jc#b############aa",
"#a#ab##.b#......a#...djc###########aaa.b",
"###b....#..a#....a..addc########.###a#aa",
"a####b..aa#...a..#..addc.#####a..###.b.#",
".##......###........gc...#####..#######.",
"b..#....##....g....#....####.##.#####.aa"};
