/* XPM */
static char *dummy[]={
"40 40 17 1",
"h c #333300",
"g c #333333",
"# c #336600",
". c #336633",
"i c #663333",
"a c #666600",
"b c #666633",
"n c #993333",
"e c #996633",
"c c #996666",
"d c #999966",
"m c #cc6633",
"o c #cc9933",
"f c #cc9966",
"j c #cc9999",
"l c #cccc99",
"k c #cccccc",
".#abbb#abbbbbbbbbbbbbbbbbbbbb#bbb#######",
"#bbbab#bbbbbbbbbbbbb#bb#bbbbb#b##a######",
"#bbbb#abbbbb#bbb.bbb###a#bb#####bab#####",
"b#b.ab#abaab.#bab#baaababb.#############",
"##b#.bab#aaba#a#b##a####bbbb###bb####a#b",
"##.#b#aa#aab##b####b##bbbbbbbaa#########",
"####b###bbbaa###a####aabbb####b######bb#",
"#####bb#baa##b.###b#####b########a######",
"b#ab.##cb#ac##b#b#ba##abb#######a#a####a",
"bba#b#ddda#efaa##baa####bbb#######bb####",
"#bb###ddda#ed#aa#b#b##b#bba##gg##b#ba##b",
"#b#a##dfdcabcbba#bbabbb##ab#ahhi#abbba#b",
"###b#a#ffda#ed#a##b.abb##ababbiibbcbbbab",
"#####aafffffdffddddjjjkklljdbcceiefff#ab",
"h#a####b#fffffffffddjjljjjjdbedeeeeeeeb#",
"#########eedffjfffddjlljjjjjeicfebeeee##",
"####ab.#acbeeddffdfjlllllljjdedlfieeee##",
"##babb###jdeibbcdjjjllllljflljlkfeeeee##",
"#####aa#bjjdbibddjflllllfffflllkleeeeeaa",
"b#####abbjjdcecddffllflffmmfflllfeeene#b",
"#haa###abdjdddcdfffflffffeeeffffmeeebeab",
"#efff####dffdddffffflffffeeeeddeeeeeee##",
"##ffmmmooofffffomffjlffffeeeeeeeeneeeb##",
"##eeeeeeeeeemmeeeefffffffmeneeeeeiiii###",
"b##bbbbiieeeeeeeeeeffffofmeeneeeeiiibb##",
"bbbbb.bb#iibeeeeeeeeefoeeeeeeeeeeeeb.#.#",
"bbbbbbbbbbhiiiiiineeeeeeeeeeeeeeebbb.###",
"bbbbbbbbb.hhhhiiiiineeeeeeeeeeeabbbb####",
"#bbbbbbbbabiiiiibbnniiinnieeeee#bbbbb.#b",
"bbbbbb#bbbbiiiiibeeeniiiiiieee#ab#.bbbb.",
"b#abbbbbbbbbiiiiibeeeeeiiiiee.###bb####.",
"###bbbbbbbbbbiibbbiineeeenebb#b##bb##b.#",
"bb##bbbb##b.bbibiiiiiiieebbbbb.#####b##b",
"bbbbbbbbbbbbbbbbiibbiiibbbbbbb.b###h####",
"bbbbbbbbbbbbbbbbbbbbbbbbbbbab##b.##b###b",
"bbbbabbbbbbbbbbbbbbbabbbbbbbbb#bab#.#b#b",
"bb#aabbbbbbbbbbbbbbbbbbbbbbbaabbb##.###b",
"#b.babbbbbbbbbbbbbbbbbbbbaababb.#b######",
"ab#a#abbbbbbbbbba.bbb#bbbbb#bbb#b###abb#",
"a#ba.abbbbbbbbbbbbbbbbbbbb#bb###b#######"};
