/* XPM */
static char *dummy[]={
"40 40 17 1",
"g c #333300",
"m c #333333",
". c #336600",
"a c #336633",
"d c #663333",
"b c #666600",
"# c #666633",
"e c #993333",
"c c #996633",
"h c #996666",
"l c #999966",
"i c #cc6633",
"o c #cc9933",
"f c #cc9966",
"n c #cc9999",
"j c #cccc99",
"k c #cccccc",
"...###.#.aa#.......##b....####.b...#....",
".#......a.#...a....b.b...#bb.....#......",
".#..#...#.#a...#.#cccccccc.#b....#.b....",
".b.....#..##.aa#dcc#ecccccf##b..........",
"...aa#g...#####ddcccccccccf####.........",
"........##a###cddcccccccccfh#.#b.....#..",
"..#.#...##.###cddecccccd#cc#b#..b....bb.",
"##.#ba....###ccccccifjffccd#...b...#.#.#",
"..a####...b.bccccccfjkkjfccdd......#...#",
".###..aa#..ccccccclfjjjlhlhdgm...#b...##",
".##b#.##.acccccccclfjjncdch#gm....b.....",
"##bb#####ccccccecccffjjlc###b.....#...##",
"#.###b###cccccccecccffjnnllb......##..##",
".#b#####cddccccccccciffnnnn##b#...##a###",
"##b#####edddccciicccifnjnnjbb##..#######",
"#######ccddecccfffffffjjnnj..########.##",
"#######ccddecccofffffjjjnnk....#.##.bb.#",
"######ddccddccofffffjjjjjjk###.b.b#.#.##",
"#.####ddccddccfffffffjjjjnn##....b..b.##",
"####b#ddecedcccffjjjjjjjnnnb#.......b..#",
"#######ddcceeccffnffjjnnllnab#bb..#bb###",
"#######ddccedcccffffffnflll##.b##...####",
"#a####dd##c#decccffffnnlffl.###......###",
"#b####dd#d##ddcccifflllfffl....#.b.##a##",
"#########dddddcccoflllhffflbbb......b###",
"#######dddddddcccflhh##lnff.#bb#a.#b####",
"########ddddgdccifllcd#lfffl#.b.#....###",
"#########dddgdccifllh#dcfflchlf..b.ba.##",
"#######a##ddgd#ccfflllcclff.#cch.b######",
"############ggdccffnnnl#cffbb..bb#bbb###",
"#######.###ba#dccollnnnhcfflhbb.b#bbb###",
"#######.######.dco.###.b..fflll###..####",
"###############dco.b#....#fffllh..b#b##b",
"##########.#####ci..bb.a..b.lll.#.bb.b..",
"bb############a#ci...b##..bb....#..##.##",
"a.bbb###########cif...#b......#a.##ab#b#",
"bb#b###.########cffb..b....#b..#....a###",
"#.a.###..b#####.cffb..#..b...#bb..a####b",
".#######..#####...cg........###......##.",
"bb.#####.##.####....#....g....##....#..a"};
