/* XPM */
static char *dummy[]={
"40 40 17 1",
"c c #333300",
"o c #333333",
". c #336600",
"b c #336633",
"d c #663333",
"a c #666600",
"# c #666633",
"f c #993333",
"e c #996633",
"m c #996666",
"l c #999966",
"i c #cc6633",
"g c #cc9933",
"h c #cc9966",
"k c #cc9999",
"j c #cccc99",
"n c #cccccc",
".......#...##.####################aba#.a",
".##a...#.###.#####.###ba##########a.a.#a",
"......#.b##a#aa####################a#b#.",
"#...b..###aa#######################aa.##",
"#.#.b.#a#.#########a###############a####",
"#...#..b#..#a###########################",
"....c...#b#######ddd##dd################",
"#..#.....b#####eeddddddd#d##b#..####..##",
".b#..##..#.##efeeeefdd###dd##########...",
"b....##...beeddddeeeee#ddddd#########a.#",
"b####b.#a.eeeddddddfeee#ddddd####.######",
"#.b#####.eeeeedffdddff##ddddd#a########.",
"....####aeeeeeeeeeeefdddddccccb#########",
"...b###eeeeeeeeeeeeeeefddddddc##########",
".b.b#eeeeeeeeeeeegheeeeeeeee#dd.##b#####",
"..##dddeeeefeeihghhhheeeeeeeeeedd####..#",
"...ddddeeeeefeihhhhhhheeeeiieeeeeeeeee..",
"..#eeefeeeeeeeehhhhjkhhighhhhhgggiiihh..",
"..eeeeeeelleeeehhhhjhhhhhlllhhl....hhhe.",
"#ae#eeeihhhheeehhhhjhhhhlmlllkl#a...aac.",
"#.efeeehjjjhhiihhjhjjhhllmemlkk##a.....#",
"aaeeeeejnjjjhhhhjjjjjhkll#d#lkk#.aa.....",
"..eeeeehnjkjjhkjjjjjkkklm##delk...##a#..",
"..eeeedhjlelkkjjjjjjkhlhhllee#ma.b#a....",
"..eeee#ehmdekkkkkjjkllhhhkhhlee.........",
".#eeeeeeele#lkkkkjkkllhhhhhhhhh.#....a.c",
"#a.hhhedemm#lkjjnnkkkllllhhlhhhhhaa.....",
"#a###m##dd##a#a..##ab#..a.le.alhh.a.#...",
"#.a###a.dcca.#a..###a##.a##m#amlhl..a.#.",
"#..a#.#..oo..a##.#..#.#.aa.le.alll...##.",
"....##.......###....aa#..aahe.alll.#.a##",
"a....a.a.......##a..a#.#.#..ma.#m..b#a.#",
"......a........#.....#...b#..aa#.##.....",
".##......#....###aa....a...aa###...#....",
".........aa#######..#....#..#aa.aa.#.b..",
"#.a....##...####....a..#.a.a#aa.#a#b.#..",
".............b##a#aaa#.#a#.b#aa#a.#ab#.#",
".....#a#.....##.a...###b###.#####a.####.",
"......a..#.#####.##.#############.#a###.",
".......###.#####################a.###a.b"};
