/* XPM */
static const char *output[] = {
/* columns rows colors chars-per-pixel */
"40 40 211 2 ",
"   c #372A19",
".  c #382C1A",
"X  c #3B2D23",
"o  c #492B15",
"O  c #4C3116",
"+  c #5A3B1F",
"@  c #54361C",
"#  c #5E3C22",
"$  c #6B3C23",
"%  c #723926",
"&  c #344E0C",
"*  c #3A550E",
"=  c #37590C",
"-  c #3D5A0D",
";  c #3B4E15",
":  c #374713",
">  c #3D5512",
",  c #3E5B12",
"<  c #3F600F",
"1  c #425C0E",
"2  c #4B5F0F",
"3  c #435514",
"4  c #445C13",
"5  c #4A5D14",
"6  c #445519",
"7  c #49551C",
"8  c #455C19",
"9  c #4C5D1A",
"0  c #535F17",
"q  c #525E1C",
"w  c #45620E",
"e  c #4A650E",
"r  c #49670B",
"t  c #506D0F",
"y  c #456212",
"u  c #4B6413",
"i  c #466811",
"p  c #4D6914",
"a  c #47611A",
"s  c #4D631A",
"d  c #4E681B",
"f  c #526616",
"g  c #526B15",
"h  c #52641C",
"j  c #59661D",
"k  c #546A1A",
"l  c #5A6C1C",
"z  c #4F7110",
"x  c #5B711D",
"c  c #567117",
"v  c #646E1F",
"b  c #62701A",
"n  c #5C4022",
"m  c #5E492B",
"M  c #59462A",
"N  c #4C5B20",
"B  c #575F27",
"V  c #5E4D36",
"C  c #634525",
"Z  c #6B4526",
"A  c #6B4927",
"S  c #6D4A2A",
"D  c #634A2C",
"F  c #734428",
"G  c #7C452B",
"H  c #734C2B",
"J  c #7A492B",
"K  c #6B512E",
"L  c #76522D",
"P  c #7B522E",
"I  c #745834",
"U  c #7B5B36",
"Y  c #6B5739",
"T  c #556422",
"R  c #5A6623",
"E  c #566A21",
"W  c #5B6B23",
"Q  c #5A6629",
"!  c #5D6B29",
"~  c #5D7123",
"^  c #5E7228",
"/  c #5E7821",
"(  c #616D25",
")  c #626D2B",
"_  c #61672E",
"`  c #627225",
"'  c #65732B",
"]  c #6A752C",
"[  c #67792B",
"{  c #6A7C2A",
"}  c #7A633D",
"|  c #6B7431",
" . c #677030",
".. c #707634",
"X. c #727B34",
"o. c #7B6543",
"O. c #82462D",
"+. c #89472F",
"@. c #824C2E",
"#. c #82532F",
"$. c #8D4E32",
"%. c #844D30",
"&. c #984D35",
"*. c #855431",
"=. c #8C5432",
"-. c #875A33",
";. c #8C5C35",
":. c #925A35",
">. c #995B37",
",. c #9F5F39",
"<. c #955234",
"1. c #A25B3A",
"2. c #A05439",
"3. c #8F6A3D",
"4. c #8B633B",
"5. c #946337",
"6. c #9A6537",
"7. c #95653A",
"8. c #9B6439",
"9. c #946A3C",
"0. c #9B6B3B",
"q. c #A8673C",
"w. c #B2683E",
"e. c #A5713E",
"r. c #AA733E",
"t. c #846A43",
"y. c #866F48",
"u. c #956C41",
"i. c #8B744A",
"p. c #9C7E4D",
"a. c #967648",
"s. c #8D795C",
"d. c #927A52",
"f. c #937E59",
"g. c #9A7F53",
"h. c #B26B40",
"j. c #A47341",
"k. c #AC7542",
"l. c #AF7F4A",
"z. c #A97B47",
"x. c #B37641",
"c. c #B67B45",
"v. c #9F8957",
"b. c #9C8459",
"n. c #A4824E",
"m. c #AA834D",
"M. c #B78147",
"N. c #BA8348",
"B. c #B78B4F",
"V. c #BC8B4D",
"C. c #B88248",
"Z. c #AD8951",
"A. c #A58A59",
"S. c #BB8E53",
"D. c #B48B58",
"F. c #AD915B",
"G. c #BD9354",
"H. c #BC9A5C",
"J. c #B9935B",
"K. c #9A8B6B",
"L. c #988C72",
"P. c #A79369",
"I. c #B29866",
"U. c #BA9B61",
"Y. c #B1976B",
"T. c #BA9E6E",
"R. c #A99978",
"E. c #B29B76",
"W. c #B99D7A",
"Q. c #B89F72",
"!. c #A88D63",
"~. c #BEA268",
"^. c #BDA272",
"/. c #BCA57B",
"(. c #C28F52",
"). c #C99452",
"_. c #C2945A",
"`. c #C69756",
"'. c #C68C4D",
"]. c #C29B69",
"[. c #C5A264",
"{. c #C3A56A",
"}. c #CAA66E",
"|. c #CCA769",
" X c #CCAB71",
".X c #CBAE7C",
"XX c #C5AC7B",
"oX c #CBB27F",
"OX c #BCA68A",
"+X c #B8A586",
"@X c #BBAC99",
"#X c #BCB2A6",
"$X c #C4AD87",
"%X c #D1AF80",
"&X c #CCB382",
"*X c #CEB489",
"=X c #D0B98F",
"-X c #C2AE93",
";X c #C1AE99",
":X c #CAB793",
">X c #CFB991",
",X c #C7B59A",
"<X c #D8BF90",
"1X c #D3BB94",
"2X c #C8B7AB",
"3X c #C8B7A5",
"4X c #D1BEA4",
"5X c #C2BCB5",
"6X c #D0C2A5",
"7X c #DBD0BC",
"8X c #D2C7B4",
/* pixels */
"1 4 * u k , 4 - p 4 d d d k 5 2 u y c k k i w 4 5 u 4 4 s 9 9 3 k u k s h i 5 4 ",
"u u 4 y 1 4 s 4 - w u i p p k e w u p i g u 4 * 5 a 4 8 3 s 4 9 4 * 4 u y u x 4 ",
"4 u * y p 5 d y - * - p d i e.j.a.z.j.7.3.i.s 4 s 8 4 4 9 h 4 s 4 y u d w 4 k u ",
"- - - * y i 1 w u u f h k V.k.0.9.0.6.@.U t.4.J h 7 a 4 ( s 3 u s y 4 u 4 i g i ",
"1 i u 4 - = - - i h k s l _.0.9.j.0.1.>.5.;.-.H H h k h ~ s 6 3 8 : s a 9 y > 4 ",
"u i d , & & - 4 g l u k d.S.j.z.l.h.1.2.1.:.4.S Z -.T ( k 7 ' T 4 4 4 4 8 6 > 1 ",
"4 p p - > & , g i i k g U k.j.U D 4.k.q.q.<.O.$ G -._ ` h 8 ^ ' y , > k 8 h 4 ; ",
"q 5 h 8 s - = i p y = w P J $.l.D.{.<X[.x.,.<.=.=.;.;.W k h 4 4 4 3 9 f s 4 h ( ",
"( 6 5 u k y > u y , = M C 4.z.^.,X8X7X<X`.k.8.6.6.5.=.c u g , u y h ^ k h N 4 u ",
"l q 1 1 w g k 4 , * .   M g.n.f.L.3X6X=X{.Z.0.:.>.<.=.;.3.8 3 s 9 9 y u ~ ] h - ",
"y y u * 2 p 4 u 1 - X   V s.t.m y.$X1X&XU.m.7.:.$.$.:.:.3.u.9 u ' s 8 s p l x 4 ",
"E h u i 5 h 1 w 1 u 4 p V o.} i.E.>X<X}.B.e.>.$.+.<.5.5.9.9.u.j l E l x g g l l ",
"' ^ 4 , ~ W y 4 - u i u p R.P.+X-X:X.XG.k.>.$.+.$.>.7.3.9.-.-.] h h g k k l i l ",
"E ' l a l ~ y , , k g l x @X@X@X-X/._.x.1.&.&.&.1.q.0.9.;.G G *.) ( ^ ~ k p k 5 ",
"k ' s h W ` s 4 1 ~ ` p g 3X;X-X,X$X_.c.w.q.h.x.c.l.a.5.G G G @.X.R R ( W f j ~ ",
"l l 5 l ( h l W s x k 1 u 2X;X;X4X4X}.).'.).`.`.V.l.7.%.O.G F -.5.{ h h h h R R ",
"h 5 f g u h s u x u 4 4 5 5X;X-X4X4X&X}. X X[.).N.j.6.=.@.% J 5.-.( ! R ) R ) ( ",
"v h 5 W u k g u p u k x ~ 5X2X3X,X,X1X&X X[._.V.V.N.e.:.G % =.:.J + R ..{ ! h l ",
"l h u g i u t e u 1 u l h #X#X3X:X=X>XoX X X X{.[._.8.=.G G =.=.$ # h j ( l u l ",
"h u u t e u w w e i u k f @XOXOX,X1X*X&X&X&X&X.X}.l.:.*.G @.=.O.$ F k 0 ( j j W ",
"h ` W f f s 4 5 f f h f 9 +XE.R.-X-X*X&X.X.X%X XS.7.=.O.O.=.*.G F P R ( W W ( R ",
"~ W T s u u 5 h h g 5 h s I.F.F./.-X/.^.~.[.[.G.j.;.*.G @.-.#.J F P ) ' ' R R q ",
"k E h 5 5 u e u u k h s u m.G.U.Y.+X+XQ.U.H.V.e.>.=.@.F P #.P L H H R  .{ ( 9 W ",
"h h 7 h k e t e s u 2 4 u m.G.[.T.Y.Y.E.T.J.x.,.>.=.H Z L P S K S S h h W l f W ",
"h l l f u u w 1 u u g f f Z.U.XX^.p.n.A.F.J.C.q.>.#.+ C S Z A L P W k j ' j ( R ",
"h ` h h g s 5 9 h g f h 5 J.[.$XY.I I p.p.n.V.e.8.#.@ @ n C A S S k ( ( R W ( T ",
"x R W 5 5 u 2 k u g 5 l A.J.[.XXb.K m y.b.n.G.x.8.*.+ O n C A D [ ( ( ] | Q B q ",
"h h 8 9 f u p e 5 W.P.d.i.m.[.^.a.D Y s.K.!.(.x.7.#.+ O + n # ` ( ( R ] ( ) R ! ",
"( Q q W l k g e d.i.i.x u H.H.F.4.t.K.R.R.W._.r.;.P + o @ @ ] R 9 j R h B ..{ l ",
"b ` v c g g l g p u 5 f g S.G.a.} K.+XOXOXW.S.e.*.S O o l W h W ' ( | ' ..[ W W ",
"[ ` j 0 g g b g 2 f f d.n.G.B.t.f.OX-XOXE.n.C.0.#.S h 9 0 R h W u ( ( ] | ( ` ] ",
"[ ` ] ~ u u x k } A.v.v.H.H.3 u p e W T Q u M.7.H 5 q R l k l k 4 h ( ` ` [ { ` ",
"c l { g l f u u d.F.I.~.{.{.! u w i i d p u C.7.H T R ( ' E x k T h ( ` ` x / W ",
"u u g u f t 4 s 4 !.F.F.i p i u 7 - p g - i c.8.P j h h ^ 6 h s d W ` ! ' s ! ~ ",
"k s u s k - 4 s * 4 u - g p 1 w l d p w i w c.;.P 9 q q Q T T s s ( k d h h g g ",
"l g k p a h s * 9 s * 5 i < i w z k u w < _.c.;.] ( ( | ! E ^ k d ! ( g g f u 9 ",
"j ( h 9 4 5 u i ~ u e g s i 4 - w p y i p ].J.9.s T W ] h k d s 8 l ] ` c l g g ",
"f j q l k 9 4 y p g x 4 1 i p - i s * - p D.B.u.4 s h k T h p 4 8 ` ) l u 9 u s ",
"w k s 4 4 4 u i 5 s l s = * u u 5 u 4 ; : a.5 u u T ! R ~ s * 4 Q W X.W s h h u ",
"a u u k 4 y 4 4 ` d y y u ; : 4 u y u d , - u 6 T ^ ^ s , h k > Q s W ` s 5 g p "
};
