/* XPM */
static char *_68ab7247d8c4e7f84ccd82f5420bed4FoS8VMu1KeaYPIU8[] = {
/* columns rows colors chars-per-pixel */
"40 40 156 2 ",
"   c #344E0C",
".  c #335609",
"X  c #3A550E",
"o  c #37590C",
"O  c #3D5A0D",
"+  c #364313",
"@  c #3A4614",
"#  c #354B11",
"$  c #3B4E15",
"%  c #3D5512",
"&  c #3E5B12",
"*  c #3F600F",
"=  c #40560C",
"-  c #425C0E",
";  c #4B5F0F",
":  c #435514",
">  c #445C13",
",  c #4A5D14",
"<  c #445519",
"1  c #49551C",
"2  c #455C19",
"3  c #4C5D1A",
"4  c #535F17",
"5  c #525E1C",
"6  c #426106",
"7  c #45620E",
"8  c #4A650E",
"9  c #4D6A0E",
"0  c #506D0F",
"q  c #456212",
"w  c #4B6413",
"e  c #466811",
"r  c #4D6914",
"t  c #47611A",
"y  c #4E6719",
"u  c #4A611C",
"i  c #4F611C",
"p  c #4F621C",
"a  c #4F631C",
"s  c #4F621F",
"d  c #4D641C",
"f  c #4D621A",
"g  c #4E691A",
"h  c #4E681B",
"j  c #4F6B1A",
"k  c #4F691C",
"l  c #4E691A",
"z  c #536616",
"x  c #526716",
"c  c #526515",
"v  c #536913",
"b  c #506E10",
"n  c #516E12",
"m  c #506814",
"M  c #506816",
"N  c #516B16",
"B  c #536C15",
"V  c #536B16",
"C  c #516018",
"Z  c #50611A",
"A  c #516418",
"S  c #516419",
"D  c #516619",
"F  c #526619",
"G  c #51641A",
"H  c #50661B",
"J  c #51661B",
"K  c #546618",
"L  c #55671B",
"P  c #50611E",
"I  c #50631F",
"U  c #52631E",
"Y  c #54671C",
"T  c #55651E",
"R  c #53641B",
"E  c #59661D",
"W  c #516918",
"Q  c #506919",
"!  c #526818",
"~  c #53681A",
"^  c #52691B",
"/  c #536A1A",
"(  c #536A1B",
")  c #556919",
"_  c #546B18",
"`  c #57681A",
"'  c #57691A",
"]  c #506C18",
"[  c #536D18",
"{  c #536D1A",
"}  c #546C19",
"|  c #566E18",
" . c #546C1A",
".. c #546E1B",
"X. c #57691C",
"o. c #546A1D",
"O. c #556C1C",
"+. c #566E1C",
"@. c #546B1B",
"#. c #596D1A",
"$. c #586C1B",
"%. c #586A1D",
"&. c #5B6C1D",
"*. c #596C1E",
"=. c #5A6D1D",
"-. c #4F7110",
";. c #507014",
":. c #547114",
">. c #5B7016",
",. c #56711B",
"<. c #5C711F",
"1. c #5B711D",
"2. c #646E1F",
"3. c #62701A",
"4. c #4C5B20",
"5. c #535F23",
"6. c #535E21",
"7. c #5A5F2A",
"8. c #536221",
"9. c #566224",
"0. c #556522",
"q. c #596722",
"w. c #5A6623",
"e. c #566A21",
"r. c #596A22",
"t. c #5C6B27",
"y. c #5B6E24",
"u. c #5B6B23",
"i. c #5A6629",
"p. c #5D6B29",
"a. c #5A7120",
"s. c #5E7026",
"d. c #5D7123",
"f. c #5E7821",
"g. c #5E7228",
"h. c #606E25",
"j. c #606F26",
"k. c #626C25",
"l. c #61672E",
"z. c #626D2B",
"x. c #617225",
"c. c #637225",
"v. c #657C23",
"b. c #687C26",
"n. c #63702E",
"m. c #64742C",
"M. c #65732B",
"N. c #6A752C",
"B. c #67792B",
"V. c #6C7C2D",
"C. c #656F31",
"Z. c #677030",
"A. c #6B7431",
"S. c #6E7A32",
"D. c #707634",
"F. c #727B34",
/* pixels */
"- > X w ~ & > O r > h y k O., ; w q :.~ o.e 7 > , w > > a 3 3 : ~ w ~ f J e , > ",
"w w > q - > f > O 7 w e r r O.8 7 w r e N w > X , u > 2 : f > 3 > X > w q w <.> ",
"> w X q r , y q O X O r h e w N > > | R > 8.a > a 2 > > 3 Z > f > q w y 7 > | w ",
"O O O X q e - 7 w w x R | R > 5.a f &.R ) q.e ] I 1 t > j.d : w f q > w > e N e ",
"- e w > O o O O e R ) f %.) #.&.r R , v n n 8 y.t.I ~ R a.a < : 2 # f t 3 q % > ",
"w e h &     O > ] #.w ) > w r 9 w | e w w , R T > 2 9.j.o.1 n.8.> > > > 2 < % - ",
"> r r O %   & ] e e ~ B r w w w w e e e 8 7 r x u.I l.x.R 2 s.m.q & % ~ 2 Z > $ ",
"5 , T 2 d O o e r q o 7 e e 7 7 7 o q q X 8 r r u.j.B.r.o.T > > > : 3 x f > T k.",
"k.< , w O.q % w q & o . 7 q : w r o o r u.e N 2 1 J ,.,.w ] & w q T s.) I 4.> w ",
"%.5 - - 7 ] ~ > & X % o & r u.w r > > q ,.y <.u.o.O.h g.1 2 : f 3 3 q w d.N.I O ",
"q q w X ; r > w - O o > > > B ) w y , q r #.x o.0.a B.J i.e.3 w M.f 2 a r #.<.> ",
"e.R w e , R - 7 - w > r w w r #.R w r r r [ ~ R s.a y.O.p.g., E &.e.&.1.B [ &.&.",
"m.s.> & a.u.q > O w e w r n r N N | [ | d.R &.p.u.i.M.O.D.u.u.N.I J ] ~ | =.e &.",
"e.M.&.t &.d.q & & ~ N #.1.| x.%.&.| 1.e ,.v.w y.m.x.u.u.M.M.r.i.z.k.g.a.~ r o., ",
"~ M.f R u.c.f > - d.x.r ] > :.v.O.q e & q &.O u.e.Z.m.9.0.A.M.M.F.q.q.j.y.c E d.",
"=.=., %.j.R &.r.f 1.O.- w & f ~ e > > f r w e w.u.M.B.S.=.j.h.R A.V.Z R R R q.w.",
"R , c V w J f w 1.w > > , R N w w | r.y.R ; c t.f , %.R > > 3 7.t.j.t.q.z.w.z.k.",
"2.R , u.w ) V w r w | 1.d.T , = w <.) R , r x 0.a , > % 2 R R M.x.T q.D.V.p.R =.",
"$.R w N e w 0 8 w - w #.R 3 3 w w R c , > 9 Z 3 Z 0.0.% 3 c , w f : T E h.=.w =.",
"R w w 9 8 w 7 6 8 e w ) K w 3 f R x c R 3 I 3 ; T t.z.p.: 3 u.> , u.` 4 k.E E u.",
"Z x.u.x x f > , c x R K 3 %., R f o., #.9 :.f 5 I 0.i.n.Z R c.) w $.w.k.u.u.j.q.",
"d.u.0.f w w , R R N , T f V 9 0 8 ) w , 8 w 8 o.u.y., f 5 3 R ) K E z.M.M.w.w.5 ",
"~ e.T , , w 8 w w | Z f w , 7 w m R w R 7 9 w w N R 3 > y.3 5 b.) 3 w.Z.V.j.3 u.",
"Z I 1 R ) 8 0 8 f w ; > w N 7 9 ] #.m e > f f 3 U w.u.> = 3 , 8 , : T R u.$.x u.",
"Z %.=.x w w 7 - w w V x K w : 3 R c 3 [ , ) f , R u.C.C., R M.w w u.` E M.E k.q.",
"R x.J R N f , 3 R m c R , <.w ) w r.f V 9 0 w 5 0.0.a r.3 Z d.~ w ` k.j.w.u.j.0.",
"1.q.u., , w ; ~ w N , %.f w 8 9 8 x w , 7 w w ~ o.s.x c 0., 5 &.B.k.k.N.A.i.5.5 ",
"R T 2 3 c w r 8 , ) x c w f 7 w V $.w x 7 9 7 > &.) R f u.0.z.x.j.j.w.N.j.z.w.t.",
"k.i.5 u.&.) [ 8 y , w <.w w ; 9 e K m 8 - w 7 w N.3 3 ) t.N.N.w.3 E w.I 7.D.b.&.",
"3.c.2.>.n m #.[ r w , c v w - e 8 , V , > e v &.T u.V V =.r.T u.M.k.A.M.D.B.u.u.",
"B.c.E 4 [ V 3.[ ; c c x V , > 8 [ [ %.I : w | t.E =.T 3 4 w.T u.w j.k.N.A.k.c.N.",
"B.x.N.d.w w 1.) 0.U w &.u.0.: w r 8 r.0.i.w 8 R u., 5 w.&.o.&.o.> Z k.c.x.B.V.c.",
",.#.v.V $.x w w ] h w ,.O.0.p.w 7 e e h r w : I %.0.q.k.M.e.1.o.0.T j.c.x.1.f.u.",
"w w N w c 9 > f > > w e e r e w 1 O r B O e T y.e.E T J s.< T f y r.x.t.M.f t.d.",
"O.f w f o.O > f X > w O B r - 7 &.y r 7 e 7 :.1.j.3 5 5 i.8.0.d f j.O.y U T N V ",
"&.N o.r t Z f X 3 f X , e * e 7 -.| w 7 * q 7 w N.j.h.A.p.e.g.o.k p.k.V [ x w 3 ",
"E k.I 3 > , w e d.w 8 N f e > O 7 r q e r X q R f 0.u.N.I o.y f 2 %.N.x.:.#.[ N ",
"x E 5 &.~ 3 > q r N 1.> - e r O e f X O r w w f > a J o.0.I r > 2 x.z.&.w 3 w f ",
"7 | f > > > w e , f &.f o X w w , w > $ @ > , w w 0.p.w.a.f X > i.y.F.u.f U R w ",
"t w w ~ > q > > x.y q q w $ + > w q w y & O w < 0.g.s.f & J O.% i.f u.c.f , v r "
};
